<svg width="755" height="755" viewBox="0 0 755 755" fill="none" xmlns="http://www.w3.org/2000/svg">
<circle cx="378" cy="378" r="377" fill="#0D0221"/>
<path d="M1.89327 352.065C-2.82697 420.517 11.2236 488.959 42.5305 550.015C75.4506 503.616 97.0798 477.965 142.5 433C128.088 439.749 120.373 441.771 107 443.5C131.15 427.679 144.282 417.948 166 397C152.483 400.344 144.934 401.044 131.5 401C162.7 379.506 178.94 365.994 205 338.5C73.6211 334.926 61.8571 160 131.5 121C201.143 82 259.69 112.285 286 244C295.058 221.752 296.845 209.371 292.5 187.5C301.751 190.064 306.061 192.673 312.5 199C338.609 182.516 369.135 174.994 399.992 176.098C430.849 177.203 460.655 187.588 485.519 205.896L537.5 209C550.732 198.096 566.618 191.939 583.765 192C600.911 192.062 619.219 199.283 632.372 210.282C622.912 203.06 611.364 199.102 599.462 199.002C587.561 198.902 575.948 202.665 566.367 209.727C556.787 216.789 549.755 226.767 546.329 238.165C542.902 249.564 543.265 261.766 547.364 272.94C528.862 248.427 518.61 247.046 500.5 262.5L503 281C525.909 267.896 540.722 275.283 558 303.5C571.15 319.317 591.661 332.288 644.5 360.5C653.296 369.296 657.946 379.941 661.305 391.918C664.665 403.894 664.887 416.534 661.949 428.621C659.012 440.708 653.014 451.836 644.533 460.935C636.051 470.034 625.371 476.797 613.52 480.575C618.114 472.713 620.146 467.404 622 455C596.851 487.223 572.149 493.373 518 493C554.274 501.305 573.87 500.572 607 486C607.112 500.977 594.12 511.878 557 534C551.53 567.942 555.576 583.045 570 606C563.362 605.266 559.094 602.949 550.5 595C572.704 635.333 594.219 645.877 659.982 628.23C702.509 577.374 729.19 532.477 745 464.5C720.815 447.635 705.229 438.213 672 421.5C699.732 428.9 715.859 436.153 746 456.5C749.54 442.893 751.105 433.401 753 412.5C726.651 406.04 709.516 403.213 673.5 400C702.838 398.073 720.533 399.526 754 406V363C720.529 368.034 701.941 372.894 669 384C700.238 368.94 718.876 362.866 754 356C753.38 340.824 752.437 332.281 750 317C712.104 335.66 693.912 347.101 663 368C689.959 345.047 707.05 332.271 748.5 310C743.343 284.659 739.303 270.519 730.901 245.372C706.762 181.144 665.553 124.721 611.714 82.1845C557.875 39.6483 493.448 12.6118 425.378 3.98899C357.307 -4.6338 288.174 5.4841 225.429 33.2522C162.685 61.0203 108.708 105.386 69.3168 161.566C29.9255 217.747 6.61352 283.613 1.89327 352.065Z" fill="#D40078" stroke="#0D0221"/>
<path d="M488.5 197C463.655 179.974 448.326 174.4 419 168.5C431.466 119.907 440 87.5 465.5 90C491 92.5 511.997 135.525 525 198.5L488.5 197Z" fill="#0D0221" stroke="#0D0221"/>
<path d="M338 488C399.193 441.102 435.267 421.847 505.5 411C435.457 427.351 399.108 445.174 338 488Z" fill="#920075"/>
<path d="M373 532.5C416.735 475.599 448.64 453.213 518.5 430C445.074 459.578 415.012 483.151 373 532.5Z" fill="#920075"/>
<path d="M447.5 521.5C468.538 487.369 483.214 470.251 520.5 447.5C485.857 474.221 470.787 490.747 447.5 521.5Z" fill="#920075"/>
<path d="M338 488C399.193 441.102 435.267 421.847 505.5 411C435.457 427.351 399.108 445.174 338 488Z" stroke="#920075"/>
<path d="M373 532.5C416.735 475.599 448.64 453.213 518.5 430C445.074 459.578 415.012 483.151 373 532.5Z" stroke="#920075"/>
<path d="M447.5 521.5C468.538 487.369 483.214 470.251 520.5 447.5C485.857 474.221 470.787 490.747 447.5 521.5Z" stroke="#920075"/>
<path d="M622 368C606 367 601.024 373.76 595.5 386.5C613.816 388.192 621.966 392.879 627 418C633.56 407.365 636.293 401.657 639.5 391.918C642.149 397.147 642.508 400.831 643 407.5C645.728 397.676 646.813 392.191 647 382.5C647.994 372.999 638 369 622 368Z" fill="#920075" stroke="#0D0221"/>
<path d="M557.48 243.078C553.342 253.638 554.712 275.145 558 286C574.963 313.011 600.652 326.321 647 350C677.271 323.105 685.155 282.322 642.404 228C634.544 219.822 622.668 213.035 611.433 211.478C600.197 209.921 588.765 212.192 578.978 217.924C569.191 223.656 561.618 232.517 557.48 243.078Z" fill="#F9C80E" stroke="#0D0221"/>
<path d="M311 347C276.822 356.584 261.592 362.131 236.5 373.5C250.391 376.006 269.84 371.768 319.5 358.5C328.946 369.925 340.429 379.741 353.586 386.572C366.743 393.402 381.139 397.515 395.919 398.666C410.698 399.818 425.558 397.983 439.614 393.272C453.67 388.562 463.899 377.825 475 368C463.213 377.018 450.186 381.738 435.818 385.458C421.45 389.177 406.482 389.978 391.799 387.811C377.117 385.645 363.018 380.557 350.336 372.847C337.654 365.137 331.181 356.538 322.5 344.5C309.597 326.242 304.809 301.853 307.791 279.695C310.773 257.538 322.031 237.33 339.303 223.133C327.802 241.345 322.089 264.695 324.662 287.065C327.236 309.435 337.169 329.788 352.385 343.871L352.534 344.003C363.282 353.447 369.072 358.534 384.692 365.982C400.383 373.464 427.18 376.99 447.5 370C467.82 363.01 483.267 348.563 493.5 328.385C501.041 304.334 502.203 290.466 497.173 264.782C489.291 240.988 473.887 220.764 453.536 207.492C433.186 194.22 409.124 188.706 385.374 191.871C361.625 195.036 339.627 206.689 323.061 224.88C306.495 243.072 296 265.889 294 291C242.551 322.286 232.468 334.71 230.5 352.5C242.443 338.993 259.099 327.212 296.5 304C300.279 325.882 302.747 336.313 311 347Z" fill="#D40078" stroke="#0D0221"/>
<path d="M351.5 328C341.317 313.13 334.48 295.525 333.237 276.69C332.694 256.774 341.414 236 347.5 227.5C353.586 219 369.377 206.826 383.313 202.433C399.067 198.667 413.73 200.551 426 204C436.858 207.107 448.714 212.873 463.264 225.539C473.702 236.976 482.861 250.66 487 266.5C491.723 294.455 492.025 309.357 479.821 331.753C470.558 346.937 456.6 357.448 438.91 361.496C423.001 366.566 406.19 363.894 390.5 358C374.722 351.021 361.589 341.711 351.5 328Z" fill="#F9C80E" stroke="#0D0221"/>
</svg>
