<?xml version="1.0" encoding="UTF-8"?>
<!-- Generated by Pixelmator Pro 3.6.18 -->
<svg width="1080" height="1080" viewBox="0 0 1080 1080" xmlns="http://www.w3.org/2000/svg" xmlns:xlink="http://www.w3.org/1999/xlink">
    <path id="path1" fill="#ffffff" fill-rule="evenodd" stroke="none" d="M 876.246094 330.000305 L 876.246094 678.399292 L 850.923828 678.399292 L 850.923828 330.000305 L 779.323059 330.000305 L 779.323059 678.399292 L 754.000793 678.399292 L 754.000793 330.000305 L 682.399963 330.000305 L 682.399963 750.000122 L 947.846863 750.000122 L 947.846863 330.000305 Z M 650.973389 750.000122 L 650.973389 330.000305 L 579.372559 330.000305 L 579.372559 750.000122 Z M 448.004303 433.664307 L 448.004303 330.000305 L 376.403503 330.000305 L 376.403503 750.000122 L 551.912781 750.000122 L 551.912781 433.664307 Z M 448.004303 678.399292 L 448.004303 505.265137 L 480.311981 505.265137 L 480.311981 678.399292 Z M 280.839294 330.000183 L 237.627319 525.026794 L 194.415359 330.000183 L 129.800003 330.000183 L 129.800003 750 L 201.400803 750 L 201.400803 544.781616 L 237.627319 708.087341 L 273.853821 544.781616 L 273.853821 750 L 345.45462 750 L 345.45462 330.000183 Z"/>
</svg>
